{"accessors" : [{"bufferView" : 0, "byteOffset" : 0, "componentType" : 5123, "count" : 8655, "type" : "SCALAR", "max" : [7228], "min" : [0]}, {"bufferView" : 1, "byteOffset" : 0, "componentType" : 5126, "count" : 7229, "type" : "VEC3", "max" : [97.99659729003906, 3.022038221359253, 19.956439971923828], "min" : [-31.7148380279541, -1.7447113990783691, -19.956443786621094], "name" : "POSITION"}, {"bufferView" : 1, "byteOffset" : 12, "componentType" : 5126, "count" : 7229, "type" : "VEC3", "max" : [1.0000044107437134, 1.0000044107437134, 1.0000044107437134], "min" : [-1.0000044107437134, -1.0000044107437134, -1.0000044107437134], "name" : "NORMAL"}, {"bufferView" : 1, "byteOffset" : 24, "componentType" : 5126, "count" : 7229, "type" : "VEC2", "max" : [1, 1], "min" : [-7.450580596923828E-08, -1.1920928955078125E-07], "name" : "TEXCOORD_0"}, {"bufferView" : 0, "byteOffset" : 17312, "componentType" : 5123, "count" : 138, "type" : "SCALAR", "max" : [116], "min" : [0]}, {"bufferView" : 2, "byteOffset" : 0, "componentType" : 5126, "count" : 117, "type" : "VEC3", "max" : [34.067230224609375, 2.563126564025879, 12.372932434082031], "min" : [-38.08332061767578, -0.9832411408424377, -12.372936248779297], "name" : "POSITION"}, {"bufferView" : 2, "byteOffset" : 12, "componentType" : 5126, "count" : 117, "type" : "VEC3", "max" : [0.01742265187203884, 0.9894673824310303, 0.6310085654258728], "min" : [-0.5956487059593201, -1.0000042915344238, -0.6309041380882263], "name" : "NORMAL"}, {"bufferView" : 2, "byteOffset" : 24, "componentType" : 5126, "count" : 117, "type" : "VEC2", "max" : [0.5731143951416016, 1], "min" : [0.4749999940395355, 0.24999988079071045], "name" : "TEXCOORD_0"}, {"bufferView" : 0, "byteOffset" : 17588, "componentType" : 5123, "count" : 5541, "type" : "SCALAR", "max" : [4654], "min" : [0]}, {"bufferView" : 3, "byteOffset" : 0, "componentType" : 5126, "count" : 4655, "type" : "VEC3", "max" : [80.24821472167969, -0.5013867616653442, 19.525875091552734], "min" : [-35.08960723876953, -0.9254201650619507, -19.603435516357422], "name" : "POSITION"}, {"bufferView" : 3, "byteOffset" : 12, "componentType" : 5126, "count" : 4655, "type" : "VEC3", "max" : [0.9999859929084778, 1.0000044107437134, 0.9998582005500793], "min" : [-0.9999859929084778, -1.0000044107437134, -0.9998607635498047], "name" : "NORMAL"}, {"bufferView" : 3, "byteOffset" : 24, "componentType" : 5126, "count" : 4655, "type" : "VEC2", "max" : [1, 1], "min" : [0, 0], "name" : "TEXCOORD_0"}, {"bufferView" : 0, "byteOffset" : 28672, "componentType" : 5123, "count" : 8664, "type" : "SCALAR", "max" : [7421], "min" : [0]}, {"bufferView" : 4, "byteOffset" : 0, "componentType" : 5126, "count" : 7422, "type" : "VEC3", "max" : [142.48025512695312, -0.4511452317237854, 19.95644187927246], "min" : [-38.79974365234375, -1.7447113990783691, -19.956443786621094], "name" : "POSITION"}, {"bufferView" : 4, "byteOffset" : 12, "componentType" : 5126, "count" : 7422, "type" : "VEC3", "max" : [1.0000044107437134, 1.0000044107437134, 1.0000044107437134], "min" : [-1.0000044107437134, -1.0000044107437134, -1.0000044107437134], "name" : "NORMAL"}, {"bufferView" : 4, "byteOffset" : 24, "componentType" : 5126, "count" : 7422, "type" : "VEC2", "max" : [1, 1], "min" : [-7.450580596923828E-08, 0], "name" : "TEXCOORD_0"}, {"bufferView" : 0, "byteOffset" : 46000, "componentType" : 5123, "count" : 3240, "type" : "SCALAR", "max" : [2727], "min" : [0]}, {"bufferView" : 5, "byteOffset" : 0, "componentType" : 5126, "count" : 2728, "type" : "VEC3", "max" : [47.4454231262207, -0.649063229560852, 19.835575103759766], "min" : [-19.365676879882812, -1.2921454906463623, -19.478416442871094], "name" : "POSITION"}, {"bufferView" : 5, "byteOffset" : 12, "componentType" : 5126, "count" : 2728, "type" : "VEC3", "max" : [1.0000044107437134, 0.9999815225601196, 1.0000044107437134], "min" : [-1.0000044107437134, -0.9999815821647644, -1.0000044107437134], "name" : "NORMAL"}, {"bufferView" : 5, "byteOffset" : 24, "componentType" : 5126, "count" : 2728, "type" : "VEC2", "max" : [1, 0.9900000095367432], "min" : [-7.450580596923828E-08, 0], "name" : "TEXCOORD_0"}, {"bufferView" : 0, "byteOffset" : 52480, "componentType" : 5123, "count" : 7404, "type" : "SCALAR", "max" : [6187], "min" : [0]}, {"bufferView" : 6, "byteOffset" : 0, "componentType" : 5126, "count" : 6188, "type" : "VEC3", "max" : [117.97250366210938, 3.0432236194610596, 35.23735046386719], "min" : [-17.437515258789062, -0.7606335878372192, -33.1611213684082], "name" : "POSITION"}, {"bufferView" : 6, "byteOffset" : 12, "componentType" : 5126, "count" : 6188, "type" : "VEC3", "max" : [0.939306914806366, 1.0000044107437134, 1.0000044107437134], "min" : [-0.9399555921554565, -1.0000044107437134, -1.0000044107437134], "name" : "NORMAL"}, {"bufferView" : 6, "byteOffset" : 24, "componentType" : 5126, "count" : 6188, "type" : "VEC2", "max" : [0.8750000596046448, 1], "min" : [0, 0], "name" : "TEXCOORD_0"}, {"bufferView" : 0, "byteOffset" : 67288, "componentType" : 5123, "count" : 1950, "type" : "SCALAR", "max" : [1624], "min" : [0]}, {"bufferView" : 7, "byteOffset" : 0, "componentType" : 5126, "count" : 1625, "type" : "VEC3", "max" : [127.85588073730469, 2.4331536293029785, 34.9576530456543], "min" : [-18.426738739013672, -0.9082201719284058, -32.34164810180664], "name" : "POSITION"}, {"bufferView" : 7, "byteOffset" : 12, "componentType" : 5126, "count" : 1625, "type" : "VEC3", "max" : [0.24028822779655457, 0.9990426301956177, 0.9673655033111572], "min" : [-0.8646028637886047, -0.9999992847442627, -0.6239016652107239], "name" : "NORMAL"}, {"bufferView" : 7, "byteOffset" : 24, "componentType" : 5126, "count" : 1625, "type" : "VEC2", "max" : [0.6250000596046448, 1], "min" : [0, 0], "name" : "TEXCOORD_0"}, {"bufferView" : 0, "byteOffset" : 71188, "componentType" : 5123, "count" : 1116, "type" : "SCALAR", "max" : [934], "min" : [0]}, {"bufferView" : 8, "byteOffset" : 0, "componentType" : 5126, "count" : 935, "type" : "VEC3", "max" : [0.35803985595703125, -0.7830444574356079, -19.10845947265625], "min" : [-8.941922187805176, -1.1952416896820068, -21.15714454650879], "name" : "POSITION"}, {"bufferView" : 8, "byteOffset" : 12, "componentType" : 5126, "count" : 935, "type" : "VEC3", "max" : [1.0000044107437134, 1.0000044107437134, 1.0000044107437134], "min" : [-1.0000044107437134, -1.0000044107437134, -1.0000044107437134], "name" : "NORMAL"}, {"bufferView" : 8, "byteOffset" : 24, "componentType" : 5126, "count" : 935, "type" : "VEC2", "max" : [0.875, 1], "min" : [0.125, 0], "name" : "TEXCOORD_0"}, {"bufferView" : 0, "byteOffset" : 73420, "componentType" : 5123, "count" : 648, "type" : "SCALAR", "max" : [548], "min" : [0]}, {"bufferView" : 9, "byteOffset" : 0, "componentType" : 5126, "count" : 549, "type" : "VEC3", "max" : [-4.490460395812988, -0.632264256477356, -16.9660701751709], "min" : [-9.72854232788086, -0.7935957908630371, -20.7213134765625], "name" : "POSITION"}, {"bufferView" : 9, "byteOffset" : 12, "componentType" : 5126, "count" : 549, "type" : "VEC3", "max" : [0.582894504070282, 0.9999687075614929, 0.903729259967804], "min" : [-0.582938551902771, -0.9999684691429138, -0.8893863558769226], "name" : "NORMAL"}, {"bufferView" : 9, "byteOffset" : 24, "componentType" : 5126, "count" : 549, "type" : "VEC2", "max" : [1, 0.9900000095367432], "min" : [-7.450580596923828E-08, 0], "name" : "TEXCOORD_0"}, {"bufferView" : 0, "byteOffset" : 74716, "componentType" : 5123, "count" : 6, "type" : "SCALAR", "max" : [4], "min" : [0]}, {"bufferView" : 10, "byteOffset" : 0, "componentType" : 5126, "count" : 5, "type" : "VEC3", "max" : [1, 0, 1], "min" : [-1, 0, -1], "name" : "POSITION"}, {"bufferView" : 10, "byteOffset" : 12, "componentType" : 5126, "count" : 5, "type" : "VEC3", "max" : [0, 1.0000044107437134, -0], "min" : [0, 1.0000044107437134, -0], "name" : "NORMAL"}, {"bufferView" : 10, "byteOffset" : 24, "componentType" : 5126, "count" : 5, "type" : "VEC2", "max" : [1, 1], "min" : [0, 0], "name" : "TEXCOORD_0"}], "asset" : {"generator" : "Aspose.3D 22.1", "version" : "2.0"}, "buffers" : [{"uri" : "data:application/octet-stream;base64,", "byteLength" : 1270356}], "bufferViews" : [{"buffer" : 0, "byteOffset" : 0, "byteLength" : 74728, "target" : 34963}, {"buffer" : 0, "byteOffset" : 74732, "byteLength" : 276960, "byteStride" : 32, "target" : 34962}, {"buffer" : 0, "byteOffset" : 351696, "byteLength" : 4416, "byteStride" : 32, "target" : 34962}, {"buffer" : 0, "byteOffset" : 356116, "byteLength" : 177312, "byteStride" : 32, "target" : 34962}, {"buffer" : 0, "byteOffset" : 533432, "byteLength" : 277248, "byteStride" : 32, "target" : 34962}, {"buffer" : 0, "byteOffset" : 810684, "byteLength" : 103680, "byteStride" : 32, "target" : 34962}, {"buffer" : 0, "byteOffset" : 914368, "byteLength" : 236928, "byteStride" : 32, "target" : 34962}, {"buffer" : 0, "byteOffset" : 1151300, "byteLength" : 62400, "byteStride" : 32, "target" : 34962}, {"buffer" : 0, "byteOffset" : 1213704, "byteLength" : 35712, "byteStride" : 32, "target" : 34962}, {"buffer" : 0, "byteOffset" : 1249420, "byteLength" : 20736, "byteStride" : 32, "target" : 34962}, {"buffer" : 0, "byteOffset" : 1270160, "byteLength" : 192, "byteStride" : 32, "target" : 34962}], "materials" : [{"name" : "Material.001", "pbrMetallicRoughness" : {"baseColorFactor" : [0.023650724440813065, 0.00485693896189332, 0.0006593374419026077, 1], "metallicFactor" : 0, "roughnessFactor" : 0.5}, "emissiveFactor" : [0, 0, 0], "alphaMode" : "OPAQUE", "doubleSided" : true}, {"name" : "Material.005", "pbrMetallicRoughness" : {"baseColorFactor" : [0.0204917024821043, 0.03117174096405506, 0.08001182228326797, 1], "metallicFactor" : 0, "roughnessFactor" : 0.5}, "emissiveFactor" : [0, 0, 0], "alphaMode" : "OPAQUE", "doubleSided" : true}, {"name" : "Material.002", "pbrMetallicRoughness" : {"baseColorFactor" : [0.1788620799779892, 0.07495046406984329, 0.0007456846069544554, 1], "metallicFactor" : 0, "roughnessFactor" : 0.5}, "emissiveFactor" : [0, 0, 0], "alphaMode" : "OPAQUE", "doubleSided" : true}, {"name" : "Material", "pbrMetallicRoughness" : {"baseColorFactor" : [0.015994967892766, 0.006469839718192816, 0.00021642223873641342, 1], "metallicFactor" : 0, "roughnessFactor" : 0.4000000059604645}, "emissiveFactor" : [0, 0, 0], "alphaMode" : "OPAQUE", "doubleSided" : true}, {"name" : "Material.003", "pbrMetallicRoughness" : {"baseColorFactor" : [0, 0, 0, 1], "metallicFactor" : 0, "roughnessFactor" : 0.5}, "emissiveFactor" : [0, 0, 0], "alphaMode" : "OPAQUE", "doubleSided" : true}, {"name" : "Material.004", "pbrMetallicRoughness" : {"baseColorFactor" : [0.005604693666100502, 0.005604693666100502, 0.005604693666100502, 1], "metallicFactor" : 0, "roughnessFactor" : 0.5}, "emissiveFactor" : [0, 0, 0], "alphaMode" : "OPAQUE", "doubleSided" : true}, {"name" : "Material.006", "pbrMetallicRoughness" : {"baseColorFactor" : [0.800000011920929, 0.800000011920929, 0.800000011920929, 1], "metallicFactor" : 0, "roughnessFactor" : 0.5}, "emissiveFactor" : [0, 0, 0], "alphaMode" : "OPAQUE", "doubleSided" : true}, {"name" : "Material.007", "pbrMetallicRoughness" : {"baseColorFactor" : [0.15743444859981537, 0.023997314274311066, 0.006325166206806898, 1], "metallicFactor" : 0, "roughnessFactor" : 0.5}, "emissiveFactor" : [0, 0, 0], "alphaMode" : "OPAQUE", "doubleSided" : true}, {"name" : "Material.008", "pbrMetallicRoughness" : {"baseColorFactor" : [0.8000000715255737, 0.45543235540390015, 0.08937147259712219, 1], "metallicFactor" : 0, "roughnessFactor" : 0.5}, "emissiveFactor" : [0, 0, 0], "alphaMode" : "OPAQUE", "doubleSided" : true}], "meshes" : [{"primitives" : [{"attributes" : {"POSITION" : 1, "NORMAL" : 2, "TEXCOORD_0" : 3}, "indices" : 0, "material" : 0, "mode" : 4}, {"attributes" : {"POSITION" : 5, "NORMAL" : 6, "TEXCOORD_0" : 7}, "indices" : 4, "material" : 1, "mode" : 4}, {"attributes" : {"POSITION" : 9, "NORMAL" : 10, "TEXCOORD_0" : 11}, "indices" : 8, "material" : 2, "mode" : 4}, {"attributes" : {"POSITION" : 13, "NORMAL" : 14, "TEXCOORD_0" : 15}, "indices" : 12, "material" : 3, "mode" : 4}, {"attributes" : {"POSITION" : 17, "NORMAL" : 18, "TEXCOORD_0" : 19}, "indices" : 16, "material" : 4, "mode" : 4}, {"attributes" : {"POSITION" : 21, "NORMAL" : 22, "TEXCOORD_0" : 23}, "indices" : 20, "material" : 5, "mode" : 4}, {"attributes" : {"POSITION" : 25, "NORMAL" : 26, "TEXCOORD_0" : 27}, "indices" : 24, "material" : 6, "mode" : 4}, {"attributes" : {"POSITION" : 29, "NORMAL" : 30, "TEXCOORD_0" : 31}, "indices" : 28, "material" : 7, "mode" : 4}, {"attributes" : {"POSITION" : 33, "NORMAL" : 34, "TEXCOORD_0" : 35}, "indices" : 32, "material" : 8, "mode" : 4}]}, {"primitives" : [{"attributes" : {"POSITION" : 37, "NORMAL" : 38, "TEXCOORD_0" : 39}, "indices" : 36, "mode" : 4}]}], "nodes" : [{"matrix" : [0.32670849561691284, 0, 0, 0, 0, 10.15837574005127, 0, 0, 0, 0, 0.32670849561691284, 0, -10.866621971130371, 17.987512588500977, 0, 1], "mesh" : 0, "name" : "pirate ship"}, {"matrix" : [-126.77171325683594, 0, 0, 0, 0, -126.77171325683594, 0, 0, 0, 0, -126.77171325683594, 0, 0, 0, 0, 1], "mesh" : 1, "name" : "Plane"}], "scene" : 0, "scenes" : [{"nodes" : [0, 1]}]}